<?xml version="1.0" encoding="UTF-8" standalone="no"?>
<!DOCTYPE svg PUBLIC "-//W3C//DTD SVG 1.1//EN"
 "http://www.w3.org/Graphics/SVG/1.1/DTD/svg11.dtd">
<!-- Generated by graphviz version 2.38.0 (20140413.2041)
 -->
<!-- Title: models_diagram Pages: 1 -->
<svg width="639pt" height="509pt"
 viewBox="0.00 0.00 639.49 509.00" xmlns="http://www.w3.org/2000/svg" xmlns:xlink="http://www.w3.org/1999/xlink">
<g id="graph0" class="graph" transform="scale(1 1) rotate(0) translate(4 505)">
<title>models_diagram</title>
<polygon fill="none" stroke="none" points="-4,4 -4,-505 635.49,-505 635.49,4 -4,4"/>
<!-- _diagram_info -->
<g id="node1" class="node"><title>_diagram_info</title>
<text text-anchor="start" x="8" y="-472.6" font-family="Times,serif" font-size="13.00">Models diagram</text>
<text text-anchor="start" x="8" y="-459.6" font-family="Times,serif" font-size="13.00">Date: Nov 15 2016 &#45; 21:10</text>
<text text-anchor="start" x="8" y="-446.6" font-family="Times,serif" font-size="13.00">Migration version: 20161115234721</text>
<text text-anchor="start" x="8" y="-433.6" font-family="Times,serif" font-size="13.00">Generated by RailRoady 1.5.2</text>
<text text-anchor="start" x="8" y="-420.6" font-family="Times,serif" font-size="13.00">http://railroady.prestonlee.com</text>
</g>
<!-- ApplicationRecord -->
<g id="node2" class="node"><title>ApplicationRecord</title>
<ellipse fill="none" stroke="black" cx="302.212" cy="-450.5" rx="77.2916" ry="18"/>
<text text-anchor="middle" x="302.212" y="-446.3" font-family="Times,serif" font-size="14.00">ApplicationRecord</text>
</g>
<!-- Caughtup -->
<g id="node3" class="node"><title>Caughtup</title>
<path fill="none" stroke="black" d="M405.034,-0.5C405.034,-0.5 523.389,-0.5 523.389,-0.5 529.389,-0.5 535.389,-6.5 535.389,-12.5 535.389,-12.5 535.389,-88.5 535.389,-88.5 535.389,-94.5 529.389,-100.5 523.389,-100.5 523.389,-100.5 405.034,-100.5 405.034,-100.5 399.034,-100.5 393.034,-94.5 393.034,-88.5 393.034,-88.5 393.034,-12.5 393.034,-12.5 393.034,-6.5 399.034,-0.5 405.034,-0.5"/>
<text text-anchor="middle" x="464.212" y="-85.3" font-family="Times,serif" font-size="14.00">Caughtup</text>
<polyline fill="none" stroke="black" points="393.034,-78.5 535.389,-78.5 "/>
<text text-anchor="start" x="401.034" y="-63.3" font-family="Times,serif" font-size="14.00">id :INTEGER</text>
<text text-anchor="start" x="401.034" y="-49.3" font-family="Times,serif" font-size="14.00">Pokemon_id :integer</text>
<text text-anchor="start" x="401.034" y="-35.3" font-family="Times,serif" font-size="14.00">levelPokemon :integer</text>
<text text-anchor="start" x="401.034" y="-21.3" font-family="Times,serif" font-size="14.00">created_at :datetime</text>
<text text-anchor="start" x="401.034" y="-7.3" font-family="Times,serif" font-size="14.00">updated_at :datetime</text>
</g>
<!-- Pokemon -->
<g id="node4" class="node"><title>Pokemon</title>
<path fill="none" stroke="black" d="M409.706,-400.5C409.706,-400.5 518.717,-400.5 518.717,-400.5 524.717,-400.5 530.717,-406.5 530.717,-412.5 530.717,-412.5 530.717,-488.5 530.717,-488.5 530.717,-494.5 524.717,-500.5 518.717,-500.5 518.717,-500.5 409.706,-500.5 409.706,-500.5 403.706,-500.5 397.706,-494.5 397.706,-488.5 397.706,-488.5 397.706,-412.5 397.706,-412.5 397.706,-406.5 403.706,-400.5 409.706,-400.5"/>
<text text-anchor="middle" x="464.212" y="-485.3" font-family="Times,serif" font-size="14.00">Pokemon</text>
<polyline fill="none" stroke="black" points="397.706,-478.5 530.717,-478.5 "/>
<text text-anchor="start" x="405.706" y="-463.3" font-family="Times,serif" font-size="14.00">id :INTEGER</text>
<text text-anchor="start" x="405.706" y="-449.3" font-family="Times,serif" font-size="14.00">name :varchar</text>
<text text-anchor="start" x="405.706" y="-435.3" font-family="Times,serif" font-size="14.00">description :text</text>
<text text-anchor="start" x="405.706" y="-421.3" font-family="Times,serif" font-size="14.00">created_at :datetime</text>
<text text-anchor="start" x="405.706" y="-407.3" font-family="Times,serif" font-size="14.00">updated_at :datetime</text>
</g>
<!-- Pokemon&#45;&gt;Caughtup -->
<g id="edge1" class="edge"><title>Pokemon&#45;&gt;Caughtup</title>
<path fill="none" stroke="#b7bd1c" d="M428.771,-392.748C424.417,-383.443 420.649,-373.673 418.212,-364 393.565,-266.168 393.565,-234.832 418.212,-137 420.504,-127.902 423.974,-118.718 428.002,-109.915"/>
<ellipse fill="none" stroke="#b7bd1c" cx="430.614" cy="-396.508" rx="4.00002" ry="4.00002"/>
<polygon fill="#b7bd1c" stroke="#b7bd1c" points="428.01,-109.898 436.423,-102.864 430.192,-105.399 432.374,-100.9 432.374,-100.9 432.374,-100.9 430.192,-105.399 428.326,-98.9362 428.01,-109.898 428.01,-109.898"/>
</g>
<!-- User -->
<g id="node5" class="node"><title>User</title>
<path fill="none" stroke="black" d="M438.934,-137.5C438.934,-137.5 619.49,-137.5 619.49,-137.5 625.49,-137.5 631.49,-143.5 631.49,-149.5 631.49,-149.5 631.49,-351.5 631.49,-351.5 631.49,-357.5 625.49,-363.5 619.49,-363.5 619.49,-363.5 438.934,-363.5 438.934,-363.5 432.934,-363.5 426.934,-357.5 426.934,-351.5 426.934,-351.5 426.934,-149.5 426.934,-149.5 426.934,-143.5 432.934,-137.5 438.934,-137.5"/>
<text text-anchor="middle" x="529.212" y="-348.3" font-family="Times,serif" font-size="14.00">User</text>
<polyline fill="none" stroke="black" points="426.934,-341.5 631.49,-341.5 "/>
<text text-anchor="start" x="434.934" y="-326.3" font-family="Times,serif" font-size="14.00">role_id :integer</text>
<text text-anchor="start" x="434.934" y="-312.3" font-family="Times,serif" font-size="14.00">email :varchar</text>
<text text-anchor="start" x="434.934" y="-298.3" font-family="Times,serif" font-size="14.00">encrypted_password :varchar</text>
<text text-anchor="start" x="434.934" y="-284.3" font-family="Times,serif" font-size="14.00">reset_password_token :varchar</text>
<text text-anchor="start" x="434.934" y="-270.3" font-family="Times,serif" font-size="14.00">reset_password_sent_at :datetime</text>
<text text-anchor="start" x="434.934" y="-256.3" font-family="Times,serif" font-size="14.00">remember_created_at :datetime</text>
<text text-anchor="start" x="434.934" y="-242.3" font-family="Times,serif" font-size="14.00">sign_in_count :integer</text>
<text text-anchor="start" x="434.934" y="-228.3" font-family="Times,serif" font-size="14.00">current_sign_in_at :datetime</text>
<text text-anchor="start" x="434.934" y="-214.3" font-family="Times,serif" font-size="14.00">last_sign_in_at :datetime</text>
<text text-anchor="start" x="434.934" y="-200.3" font-family="Times,serif" font-size="14.00">current_sign_in_ip :varchar</text>
<text text-anchor="start" x="434.934" y="-186.3" font-family="Times,serif" font-size="14.00">last_sign_in_ip :varchar</text>
<text text-anchor="start" x="434.934" y="-172.3" font-family="Times,serif" font-size="14.00">created_at :datetime</text>
<text text-anchor="start" x="434.934" y="-158.3" font-family="Times,serif" font-size="14.00">updated_at :datetime</text>
<text text-anchor="start" x="434.934" y="-144.3" font-family="Times,serif" font-size="14.00">id :INTEGER</text>
</g>
<!-- Pokemon&#45;&gt;User -->
<g id="edge2" class="edge"><title>Pokemon&#45;&gt;User</title>
<path fill="none" stroke="#ae3679" d="M483.497,-390.754C485.362,-385.072 487.298,-379.176 489.272,-373.163"/>
<polygon fill="#ae3679" stroke="#ae3679" points="483.482,-390.801 476.087,-398.898 481.922,-395.551 480.363,-400.302 480.363,-400.302 480.363,-400.302 481.922,-395.551 484.638,-401.705 483.482,-390.801 483.482,-390.801"/>
<polygon fill="#ae3679" stroke="#ae3679" points="489.282,-373.131 496.677,-365.034 490.842,-368.381 492.401,-363.63 492.401,-363.63 492.401,-363.63 490.842,-368.381 488.126,-362.226 489.282,-373.131 489.282,-373.131"/>
</g>
<!-- User&#45;&gt;Caughtup -->
<g id="edge3" class="edge"><title>User&#45;&gt;Caughtup</title>
<path fill="none" stroke="#84d85f" d="M489.897,-129.741C487.73,-123.141 485.606,-116.671 483.565,-110.454"/>
<ellipse fill="none" stroke="#84d85f" cx="491.19" cy="-133.681" rx="4.00001" ry="4.00001"/>
<polygon fill="#84d85f" stroke="#84d85f" points="483.551,-110.411 484.708,-99.5066 481.992,-105.661 480.432,-100.91 480.432,-100.91 480.432,-100.91 481.992,-105.661 476.157,-102.314 483.551,-110.411 483.551,-110.411"/>
</g>
</g>
</svg>
