<?xml version="1.0" encoding="UTF-8" standalone="no"?>
<!DOCTYPE svg PUBLIC "-//W3C//DTD SVG 1.1//EN"
 "http://www.w3.org/Graphics/SVG/1.1/DTD/svg11.dtd">
<!-- Generated by graphviz version 2.38.0 (20140413.2041)
 -->
<!-- Title: models_diagram Pages: 1 -->
<svg width="503pt" height="225pt"
 viewBox="0.00 0.00 503.21 225.00" xmlns="http://www.w3.org/2000/svg" xmlns:xlink="http://www.w3.org/1999/xlink">
<g id="graph0" class="graph" transform="scale(1 1) rotate(0) translate(4 221)">
<title>models_diagram</title>
<polygon fill="none" stroke="none" points="-4,4 -4,-221 499.212,-221 499.212,4 -4,4"/>
<!-- _diagram_info -->
<g id="node1" class="node"><title>_diagram_info</title>
<text text-anchor="start" x="8" y="-202.6" font-family="Times,serif" font-size="13.00">Models diagram</text>
<text text-anchor="start" x="8" y="-189.6" font-family="Times,serif" font-size="13.00">Date: Nov 15 2016 &#45; 21:10</text>
<text text-anchor="start" x="8" y="-176.6" font-family="Times,serif" font-size="13.00">Migration version: 20161115234721</text>
<text text-anchor="start" x="8" y="-163.6" font-family="Times,serif" font-size="13.00">Generated by RailRoady 1.5.2</text>
<text text-anchor="start" x="8" y="-150.6" font-family="Times,serif" font-size="13.00">http://railroady.prestonlee.com</text>
</g>
<!-- ApplicationRecord -->
<g id="node2" class="node"><title>ApplicationRecord</title>
<ellipse fill="none" stroke="black" cx="302.212" cy="-180.5" rx="77.2916" ry="18"/>
<text text-anchor="middle" x="302.212" y="-176.3" font-family="Times,serif" font-size="14.00">ApplicationRecord</text>
</g>
<!-- Caughtup -->
<g id="node3" class="node"><title>Caughtup</title>
<ellipse fill="none" stroke="black" cx="440.212" cy="-18" rx="44.4923" ry="18"/>
<text text-anchor="middle" x="440.212" y="-13.8" font-family="Times,serif" font-size="14.00">Caughtup</text>
</g>
<!-- Pokemon -->
<g id="node4" class="node"><title>Pokemon</title>
<ellipse fill="none" stroke="black" cx="441.212" cy="-180.5" rx="43.5319" ry="18"/>
<text text-anchor="middle" x="441.212" y="-176.3" font-family="Times,serif" font-size="14.00">Pokemon</text>
</g>
<!-- Pokemon&#45;&gt;Caughtup -->
<g id="edge1" class="edge"><title>Pokemon&#45;&gt;Caughtup</title>
<path fill="none" stroke="#3973fe" d="M436.841,-154.297C433.605,-132.518 430.096,-100.193 432.212,-72 432.848,-63.5179 434.05,-54.3361 435.332,-46.0356"/>
<ellipse fill="none" stroke="#3973fe" cx="437.485" cy="-158.426" rx="4.00001" ry="4.00001"/>
<polygon fill="#3973fe" stroke="#3973fe" points="435.342,-45.9796 441.404,-36.8417 436.152,-41.0458 436.963,-36.1119 436.963,-36.1119 436.963,-36.1119 436.152,-41.0458 432.523,-35.3822 435.342,-45.9796 435.342,-45.9796"/>
</g>
<!-- User -->
<g id="node5" class="node"><title>User</title>
<ellipse fill="none" stroke="black" cx="468.212" cy="-90" rx="27" ry="18"/>
<text text-anchor="middle" x="468.212" y="-85.8" font-family="Times,serif" font-size="14.00">User</text>
</g>
<!-- Pokemon&#45;&gt;User -->
<g id="edge2" class="edge"><title>Pokemon&#45;&gt;User</title>
<path fill="none" stroke="#ba86e3" d="M449.336,-152.871C452.763,-141.637 456.743,-128.591 460.163,-117.383"/>
<polygon fill="#ba86e3" stroke="#ba86e3" points="449.336,-152.872 442.113,-161.123 447.877,-157.654 446.418,-162.436 446.418,-162.436 446.418,-162.436 447.877,-157.654 450.722,-163.749 449.336,-152.872 449.336,-152.872"/>
<polygon fill="#ba86e3" stroke="#ba86e3" points="460.195,-117.276 467.417,-109.024 461.654,-112.494 463.113,-107.711 463.113,-107.711 463.113,-107.711 461.654,-112.494 458.809,-106.398 460.195,-117.276 460.195,-117.276"/>
</g>
<!-- User&#45;&gt;Caughtup -->
<g id="edge3" class="edge"><title>User&#45;&gt;Caughtup</title>
<path fill="none" stroke="#44c3cc" d="M458.523,-64.7779C456.029,-58.544 453.334,-51.8046 450.797,-45.4634"/>
<ellipse fill="none" stroke="#44c3cc" cx="460.09" cy="-68.6971" rx="4.00001" ry="4.00001"/>
<polygon fill="#44c3cc" stroke="#44c3cc" points="450.708,-45.241 451.172,-34.2849 448.851,-40.5986 446.994,-35.9562 446.994,-35.9562 446.994,-35.9562 448.851,-40.5986 442.816,-37.6275 450.708,-45.241 450.708,-45.241"/>
</g>
</g>
</svg>
